<?xml version="1.0" encoding="utf-8"?>
<!-- Generator: Adobe Illustrator 17.1.0, SVG Export Plug-In . SVG Version: 6.00 Build 0)  -->
<!DOCTYPE svg PUBLIC "-//W3C//DTD SVG 1.1//EN" "http://www.w3.org/Graphics/SVG/1.1/DTD/svg11.dtd">
<svg version="1.1" id="drafting-compass" xmlns="http://www.w3.org/2000/svg" xmlns:xlink="http://www.w3.org/1999/xlink" x="0px"
	 y="0px" viewBox="0 0 1024 1024" enable-background="new 0 0 1024 1024" xml:space="preserve">
<g id="drafting-compass-drafting-compass">
	<rect fill="#656872" width="1024" height="1024"/>
	<g id="drafting-compass-drafting-compass_1_">
		<g>
			<path fill="#FFFFFF" d="M511.9893,463.7578c-29.0137,0-52.6211-23.6025-52.6211-52.6211
				c0-29.0303,23.6074-52.6426,52.6211-52.6426c29.025,0,52.6425,23.6123,52.6425,52.6426
				C564.6318,440.1553,541.0142,463.7578,511.9893,463.7578L511.9893,463.7578z M511.9893,379.5469
				c-17.4087,0-31.5688,14.1758-31.5688,31.5898c0,17.4033,14.1602,31.5674,31.5688,31.5674
				c17.4189,0,31.5898-14.1641,31.5898-31.5674C543.5791,393.7227,529.4082,379.5469,511.9893,379.5469L511.9893,379.5469z"/>
		</g>
		<g>
			<polygon fill="#FFFFFF" points="522.5264,364.6309 501.4731,364.6309 501.4731,312 522.5264,312 522.5264,364.6309 			"/>
		</g>
		<g>
			<g>
				<path fill="#FFFFFF" d="M338.3101,712c-1.398,0-2.8218-0.2773-4.189-0.873c-5.3296-2.3135-7.7769-8.5118-5.4639-13.8467
					L456.6338,402.543c2.3179-5.336,8.4907-7.793,13.852-5.459c5.3296,2.3135,7.7764,8.5117,5.4634,13.8467L347.9727,705.6689
					C346.2456,709.6357,342.376,712,338.3101,712L338.3101,712z"/>
			</g>
			<g>
				<path fill="#FFFFFF" d="M685.6895,712c-4.066,0-7.9356-2.3643-9.6626-6.3311L548.0508,410.9307
					c-2.313-5.335,0.1333-11.5332,5.4634-13.8467c5.3452-2.3233,11.5337,0.123,13.8515,5.459l127.9766,294.7373
					c2.313,5.3349-0.1338,11.5332-5.4639,13.8467C688.5112,711.7227,687.0879,712,685.6895,712L685.6895,712z"/>
			</g>
		</g>
		<g>
			<polygon fill="#FFFFFF" points="680.416,554.1055 343.5835,554.1055 343.5835,533.0527 680.416,533.0527 680.416,554.1055 			"/>
		</g>
		<g>
			<polygon fill="#FFFFFF" points="522.5264,585.6846 501.4731,585.6846 501.4731,501.4736 522.5264,501.4736 522.5264,585.6846 			
				"/>
		</g>
	</g>
</g>
</svg>
