<?xml version="1.0" encoding="utf-8"?>
<!-- Generator: Adobe Illustrator 17.1.0, SVG Export Plug-In . SVG Version: 6.00 Build 0)  -->
<!DOCTYPE svg PUBLIC "-//W3C//DTD SVG 1.1//EN" "http://www.w3.org/Graphics/SVG/1.1/DTD/svg11.dtd">
<svg version="1.1" id="layers" xmlns="http://www.w3.org/2000/svg" xmlns:xlink="http://www.w3.org/1999/xlink" x="0px" y="0px"
	 viewBox="0 0 1024 1024" enable-background="new 0 0 1024 1024" xml:space="preserve">
<g id="layers-layers">
	<rect fill="#656872" width="1024" height="1024"/>
	<g id="layers-layers_1_">
		<g>
			<path fill="#FFFFFF" d="M511.9995,712c-1.5571,0-3.1143-0.3486-4.5537-1.0371l-182.1885-87.4512
				c-3.6489-1.7471-5.9721-5.4365-5.9721-9.4883c0-4.0498,2.3232-7.7402,5.9721-9.4873l106.2774-51.0195
				c5.2226-2.5273,11.5239-0.3066,14.0424,4.9355c2.5191,5.2422,0.3082,11.5225-4.934,14.042l-86.5039,41.5293l157.8603,75.7735
				l157.8613-75.7735l-86.5092-41.5293c-5.2422-2.5195-7.4527-8.7998-4.9341-14.042c2.5132-5.2421,8.8042-7.4628,14.0425-4.9355
				l106.2817,51.0195c3.6499,1.7471,5.9731,5.4375,5.9731,9.4873c0,4.0518-2.3232,7.7412-5.9731,9.4883l-182.1875,87.4512
				C515.1147,711.6514,513.5576,712,511.9995,712L511.9995,712z"/>
		</g>
		<g>
			<path fill="#FFFFFF" d="M511.9995,507.9463c-1.5571,0-3.1143-0.3496-4.5537-1.0381L325.2573,419.46
				c-3.6489-1.7491-5.9721-5.4395-5.9721-9.4893s2.3232-7.7402,5.9721-9.4883l182.1885-87.4492c2.8784-1.377,6.23-1.377,9.1084,0
				l182.1875,87.4492c3.6499,1.7481,5.9731,5.4385,5.9731,9.4883s-2.3232,7.7402-5.9731,9.4893l-182.1875,87.4482
				C515.1147,507.5967,513.5576,507.9463,511.9995,507.9463L511.9995,507.9463z M354.1392,409.9707l157.8603,75.7715
				l157.8613-75.7715l-157.8613-75.7715L354.1392,409.9707L354.1392,409.9707z"/>
		</g>
		<g>
			<path fill="#FFFFFF" d="M511.9995,609.9736c-1.5571,0-3.1143-0.3495-4.5537-1.0381l-182.1885-87.4511
				c-3.6489-1.7461-5.9721-5.4365-5.9721-9.4863c0-4.0518,2.3232-7.7422,5.9721-9.4893l106.2774-51.0176
				c5.2226-2.5293,11.5239-0.3183,14.0424,4.9336c2.5191,5.2422,0.3082,11.5244-4.934,14.042l-86.5039,41.5312l157.8603,75.7714
				l157.8613-75.7714l-86.5092-41.5312c-5.2422-2.5176-7.4527-8.7998-4.9341-14.042c2.5132-5.2519,8.8042-7.4629,14.0425-4.9336
				l106.2817,51.0176c3.6499,1.7471,5.9731,5.4375,5.9731,9.4893c0,4.0498-2.3232,7.7402-5.9731,9.4863l-182.1875,87.4511
				C515.1147,609.624,513.5576,609.9736,511.9995,609.9736L511.9995,609.9736z"/>
		</g>
	</g>
</g>
</svg>
