<?xml version="1.0" encoding="utf-8"?>
<!-- Generator: Adobe Illustrator 17.1.0, SVG Export Plug-In . SVG Version: 6.00 Build 0)  -->
<!DOCTYPE svg PUBLIC "-//W3C//DTD SVG 1.1//EN" "http://www.w3.org/Graphics/SVG/1.1/DTD/svg11.dtd">
<svg version="1.1" id="notebook" xmlns="http://www.w3.org/2000/svg" xmlns:xlink="http://www.w3.org/1999/xlink" x="0px" y="0px"
	 viewBox="0 0 1024 1024" enable-background="new 0 0 1024 1024" xml:space="preserve">
<g id="notebook-notebook">
	<rect fill="#80C2B8" width="1024" height="1024"/>
	<g id="notebook-notebook_1_">
		<g>
			<path fill="#FFFFFF" d="M646.8276,712H343.5791V312h303.2485c18.5245,0,33.5933,14.5254,33.5933,32.3701v335.2695
				C680.4209,697.4863,665.3521,712,646.8276,712L646.8276,712z M364.6313,690.9473h282.1963
				c6.9136,0,12.5411-5.0674,12.5411-11.3077V344.3701c0-6.2402-5.6275-11.3174-12.5411-11.3174H364.6313V690.9473
				L364.6313,690.9473z"/>
		</g>
		<g>
			<g>
				<polygon fill="#FFFFFF" points="664.6323,575.3027 606.7368,575.3027 606.7368,554.249 664.6323,554.249 664.6323,575.3027 				
					"/>
			</g>
			<g>
				<polygon fill="#FFFFFF" points="564.6323,575.3027 359.3677,575.3027 359.3677,554.249 564.6323,554.249 564.6323,575.3027 				
					"/>
			</g>
			<g>
				<polygon fill="#FFFFFF" points="564.6323,469.751 359.3677,469.751 359.3677,448.6973 564.6323,448.6973 564.6323,469.751 				
					"/>
			</g>
			<g>
				<polygon fill="#FFFFFF" points="664.6323,469.751 606.7368,469.751 606.7368,448.6973 664.6323,448.6973 664.6323,469.751 				
					"/>
			</g>
		</g>
		<g>
			<path fill="#FFFFFF" d="M606.7368,712h-42.1045c-5.8135,0-10.5268-4.707-10.5268-10.5254V322.5254h21.0522v368.4219h21.0532
				V322.5254h21.0523v378.9492C617.2632,707.293,612.5503,712,606.7368,712L606.7368,712z"/>
		</g>
	</g>
</g>
</svg>
