<?xml version="1.0" encoding="utf-8"?>
<!-- Generator: Adobe Illustrator 17.1.0, SVG Export Plug-In . SVG Version: 6.00 Build 0)  -->
<!DOCTYPE svg PUBLIC "-//W3C//DTD SVG 1.1//EN" "http://www.w3.org/Graphics/SVG/1.1/DTD/svg11.dtd">
<svg version="1.1" id="painting-roller" xmlns="http://www.w3.org/2000/svg" xmlns:xlink="http://www.w3.org/1999/xlink" x="0px"
	 y="0px" viewBox="0 0 1024 1024" enable-background="new 0 0 1024 1024" xml:space="preserve">
<g id="painting-roller-painting-roller">
	<rect fill="#FFCA70" width="1024" height="1024"/>
	<g id="painting-roller-painting-roller_1_">
		<g>
			<path fill="#FFFFFF" d="M522.5259,560.8076h-21.0523v-80.3867c0-5.8184,4.7129-10.5264,10.5264-10.5264h178.9473v-84.5703H712
				v95.0967c0,5.8184-4.7134,10.5273-10.5264,10.5273H522.5259V560.8076L522.5259,560.8076z"/>
		</g>
		<g>
			<path fill="#FFFFFF" d="M548.8423,712h-73.6846V543.5791h73.6846V712L548.8423,712z M496.21,690.9473h31.5796V564.6318H496.21
				V690.9473L496.21,690.9473z"/>
		</g>
		<g>
			<path fill="#FFFFFF" d="M648.8418,438.3154H354.105c-5.813,0-10.5264-4.708-10.5264-10.5263V322.5264
				c0-5.8184,4.7134-10.5264,10.5264-10.5264h294.7368c5.813,0,10.5264,4.708,10.5264,10.5264v105.2627
				C659.3682,433.6074,654.6548,438.3154,648.8418,438.3154L648.8418,438.3154z M364.6313,417.2637h273.6846v-84.211H364.6313
				V417.2637L364.6313,417.2637z"/>
		</g>
		<g>
			<path fill="#FFFFFF" d="M701.4736,395.8506h-52.6318c-5.813,0-10.5259-4.708-10.5259-10.5264
				c0-5.8183,4.7129-10.5263,10.5259-10.5263h52.6318c5.813,0,10.5264,4.708,10.5264,10.5263
				C712,391.1426,707.2866,395.8506,701.4736,395.8506L701.4736,395.8506z"/>
		</g>
		<g>
			<path fill="#FFFFFF" d="M354.105,590.9473c-23.2163,0-42.105-18.8839-42.105-42.1055c0-19.6543,27.8574-61.04,33.4395-69.1299
				l8.6655-12.5723l8.666,12.5723c5.5815,8.0899,33.4394,49.4756,33.4394,69.1299
				C396.2104,572.0635,377.3213,590.9473,354.105,590.9473L354.105,590.9473z M354.105,504.8652
				c-11.2305,17.96-21.0523,37.0381-21.0523,43.9766c0,11.6064,9.4414,21.0527,21.0523,21.0527
				c11.6108,0,21.0527-9.4463,21.0527-21.0527C375.1577,541.8936,365.3359,522.8252,354.105,504.8652L354.105,504.8652z"/>
		</g>
	</g>
</g>
</svg>
