<?xml version="1.0" encoding="utf-8"?>
<!-- Generator: Adobe Illustrator 17.1.0, SVG Export Plug-In . SVG Version: 6.00 Build 0)  -->
<!DOCTYPE svg PUBLIC "-//W3C//DTD SVG 1.1//EN" "http://www.w3.org/Graphics/SVG/1.1/DTD/svg11.dtd">
<svg version="1.1" id="pen-tool" xmlns="http://www.w3.org/2000/svg" xmlns:xlink="http://www.w3.org/1999/xlink" x="0px" y="0px"
	 viewBox="0 0 1024 1024" enable-background="new 0 0 1024 1024" xml:space="preserve">
<g id="pen-tool-pen-tool">
	<rect fill="#ED7161" width="1024" height="1024"/>
	<g id="pen-tool-pen-tool_1_">
		<g>
			<path fill="#FFFFFF" d="M322.418,712c-2.7359,0-5.3897-1.0771-7.3623-3.0508c-2.4707-2.4707-3.5386-6.0195-2.8423-9.4463
				l42.77-209.7011c0.6914-3.376,3.0098-6.1934,6.1934-7.5245l178.1269-74.3339c3.8794-1.6172,8.3794-0.753,11.3735,2.247
				l63.1182,63.1075c2.9849,2.9794,3.874,7.4736,2.2471,11.3681L541.729,662.8242c-1.3271,3.1826-4.1489,5.5108-7.5303,6.1924
				l-209.7011,42.7695C323.8062,711.9297,323.1094,712,322.418,712L322.418,712z M374.2891,499.3701l-38.5196,188.8662
				l188.8658-38.5195l69.5039-166.627l-53.2544-53.2431L374.2891,499.3701L374.2891,499.3701z"/>
		</g>
		<g>
			<polygon fill="#FFFFFF" points="329.77,708.9297 315.0459,694.2051 440.1323,569.1494 454.8569,583.873 329.77,708.9297 			"/>
		</g>
		<g>
			<path fill="#FFFFFF" d="M467.9639,602.8896c-12.5171,0-24.2881-4.8808-33.1451-13.7382
				c-8.8466-8.8272-13.7226-20.5723-13.7329-33.0801c-0.0048-12.5283,4.8711-24.3027,13.7329-33.1592
				c8.8418-8.8574,20.6075-13.7393,33.125-13.7393c12.5176,0,24.2833,4.8818,33.1353,13.7393
				c8.8521,8.8457,13.7275,20.6211,13.7227,33.1397c0,12.5078-4.876,24.2724-13.7281,33.1289
				C492.2217,598.0283,480.4668,602.8896,467.9639,602.8896L467.9639,602.8896z M467.9438,529.999
				c-6.9506,0-13.4838,2.7149-18.3955,7.6367c-4.9316,4.9219-7.6367,11.4707-7.6367,18.4258
				c0.0049,6.9346,2.71,13.4531,7.6221,18.3545c9.8633,9.8535,26.9775,9.8535,36.8208,0.041
				c4.9116-4.9218,7.6216-11.4609,7.6216-18.416c0.0049-6.9453-2.7051-13.4834-7.6265-18.4053
				C481.4277,532.7139,474.894,529.999,467.9438,529.999L467.9438,529.999z"/>
		</g>
		<g>
			<path fill="#FFFFFF" d="M624.8438,513.8105L510.1851,399.167L597.3418,312l114.6538,114.6631L624.8438,513.8105
				L624.8438,513.8105z M539.6343,399.167l85.2095,85.1943l57.7026-57.6982l-85.2046-85.2139L539.6343,399.167L539.6343,399.167z"/>
		</g>
	</g>
</g>
</svg>
