<?xml version="1.0" encoding="utf-8"?>
<!-- Generator: Adobe Illustrator 17.1.0, SVG Export Plug-In . SVG Version: 6.00 Build 0)  -->
<!DOCTYPE svg PUBLIC "-//W3C//DTD SVG 1.1//EN" "http://www.w3.org/Graphics/SVG/1.1/DTD/svg11.dtd">
<svg version="1.1" id="screen-infinity" xmlns="http://www.w3.org/2000/svg" xmlns:xlink="http://www.w3.org/1999/xlink" x="0px"
	 y="0px" viewBox="0 0 1024 1024" enable-background="new 0 0 1024 1024" xml:space="preserve">
<g id="screen-infinity-screen-infinity">
	<rect fill="#ED7161" width="1024" height="1024"/>
	<g id="screen-infinity-screen-infinity_1_">
		<g id="screen-infinity-screen">
			<g>
				<polygon fill="#FFFFFF" points="560.417,701.4736 539.3643,701.4736 539.3643,617.2627 560.417,617.2627 560.417,701.4736 				
					"/>
			</g>
			<g>
				<polygon fill="#FFFFFF" points="484.6304,701.4736 463.5776,701.4736 463.5776,617.2627 484.6304,617.2627 484.6304,701.4736 
									"/>
			</g>
			<g>
				<polygon fill="#FFFFFF" points="610.9512,701.4736 413.0586,701.4736 413.0586,680.4209 610.9512,680.4209 610.9512,701.4736 
									"/>
			</g>
			<g>
				<path fill="#FFFFFF" d="M676.2065,638.3164H347.7881c-19.7315,0-35.7881-16.0566-35.7881-35.7939v-244.212
					c0-19.7275,16.0566-35.7841,35.7881-35.7841h328.4184c19.7364,0,35.7935,16.0566,35.7935,35.7841v244.212
					C712,622.2598,695.9429,638.3164,676.2065,638.3164L676.2065,638.3164z M347.7881,343.5791
					c-8.126,0-14.7354,6.6094-14.7354,14.7314v244.212c0,8.1308,6.6094,14.7402,14.7354,14.7402h328.4184
					c8.1255,0,14.7408-6.6094,14.7408-14.7402v-244.212c0-8.122-6.6153-14.7314-14.7408-14.7314H347.7881L347.7881,343.5791z"/>
			</g>
			<g>
				<polygon fill="#FFFFFF" points="712,596.2109 312,596.2109 312,575.1572 712,575.1572 712,596.2109 				"/>
			</g>
		</g>
		<g id="screen-infinity-infinity">
			<g>
				<path fill="#FFFFFF" d="M589.251,534.7588c-32.6172,0-55.7359-23.457-77.251-48.7559
					c-21.7002,25.4727-44.7627,48.7559-77.2515,48.7559c-35.7627,0-64.854-29.1016-64.854-64.8643s29.0913-64.8642,64.854-64.8642
					c32.6431,0,56.502,23.9824,77.2515,48.2734c20.749-24.291,44.6079-48.2734,77.251-48.2734
					c35.7632,0,64.854,29.1015,64.854,64.8642S625.0142,534.7588,589.251,534.7588L589.251,534.7588z M525.7383,469.6475
					c19.9219,23.623,39.1089,44.0595,63.5127,44.0595c24.1523,0,43.8012-19.6552,43.8012-43.8125
					c0-24.1572-19.6489-43.8115-43.8012-43.8115C564.5078,426.083,545.3315,446.4258,525.7383,469.6475L525.7383,469.6475z
					 M434.7485,426.083c-24.1518,0-43.8012,19.6543-43.8012,43.8115c0,24.1573,19.6494,43.8125,43.8012,43.8125
					c24.5171,0,43.7652-20.6318,63.5176-44.0595C478.6685,446.4258,459.4912,426.083,434.7485,426.083L434.7485,426.083z"/>
			</g>
		</g>
	</g>
</g>
</svg>
