<?xml version="1.0" encoding="utf-8"?>
<!-- Generator: Adobe Illustrator 17.1.0, SVG Export Plug-In . SVG Version: 6.00 Build 0)  -->
<!DOCTYPE svg PUBLIC "-//W3C//DTD SVG 1.1//EN" "http://www.w3.org/Graphics/SVG/1.1/DTD/svg11.dtd">
<svg version="1.1" id="shapes" xmlns="http://www.w3.org/2000/svg" xmlns:xlink="http://www.w3.org/1999/xlink" x="0px" y="0px"
	 viewBox="0 0 1024 1024" enable-background="new 0 0 1024 1024" xml:space="preserve">
<g id="shapes-shapes">
	<rect fill="#FFCA70" width="1024" height="1024"/>
	<g id="shapes-shapes_1_">
		<g>
			<path fill="#FFFFFF" d="M712,712.0059H312V311.9941h400V712.0059L712,712.0059z M333.0527,690.9512h357.8946V333.0469H333.0527
				V690.9512L333.0527,690.9512z"/>
		</g>
		<g>
			<path fill="#FFFFFF" d="M660.6118,654.1094H531.8081l64.4023-128.8145L660.6118,654.1094L660.6118,654.1094z M565.875,633.0586
				h60.6704l-30.335-60.6816L565.875,633.0586L565.875,633.0586z"/>
		</g>
		<g>
			<path fill="#FFFFFF" d="M464.292,654.1094h-75.1489l-20.8003-65.8711l59.4106-53.5469l59.6631,53.2578L464.292,654.1094
				L464.292,654.1094z M404.5728,633.0586h44.7729l13.5537-38.7754l-35.0742-31.3027l-35.3257,31.8359L404.5728,633.0586
				L404.5728,633.0586z"/>
		</g>
		<g>
			<path fill="#FFFFFF" d="M596.2104,485.6797c-31.9233,0-57.895-25.9785-57.895-57.8965s25.9717-57.8945,57.895-57.8945
				c31.9229,0,57.8946,25.9765,57.8946,57.8945S628.1333,485.6797,596.2104,485.6797L596.2104,485.6797z M596.2104,390.9414
				c-20.3125,0-36.8422,16.5313-36.8422,36.8418c0,20.3125,16.5297,36.8438,36.8422,36.8438
				c20.3121,0,36.8418-16.5313,36.8418-36.8438C633.0522,407.4727,616.5225,390.9414,596.2104,390.9414L596.2104,390.9414z"/>
		</g>
		<g>
			<path fill="#FFFFFF" d="M485.6841,485.6797H369.8945v-115.791h115.7896V485.6797L485.6841,485.6797z M390.9473,464.627h73.684
				v-73.6856h-73.684V464.627L390.9473,464.627z"/>
		</g>
	</g>
</g>
</svg>
