<?xml version="1.0" encoding="utf-8"?>
<!-- Generator: Adobe Illustrator 17.1.0, SVG Export Plug-In . SVG Version: 6.00 Build 0)  -->
<!DOCTYPE svg PUBLIC "-//W3C//DTD SVG 1.1//EN" "http://www.w3.org/Graphics/SVG/1.1/DTD/svg11.dtd">
<svg version="1.1" id="web-design-2" xmlns="http://www.w3.org/2000/svg" xmlns:xlink="http://www.w3.org/1999/xlink" x="0px"
	 y="0px" viewBox="0 0 1024 1024" enable-background="new 0 0 1024 1024" xml:space="preserve">
<g id="web-design-2-web-design-2">
	<rect fill="#80C2B8" width="1024" height="1024"/>
	<g id="web-design-2-web-design-2_1_">
		<g id="web-design-2-retina-ready">
			<g id="web-design-2-web-designer">
				<g>
					<g>
						<polygon fill="#FFFFFF" points="669.5825,690.791 312,690.791 312,333.209 669.5825,333.209 669.5825,444.4756 
							650.7622,444.4756 650.7622,352.0293 330.8203,352.0293 330.8203,671.9707 650.7622,671.9707 650.7622,505.3096 
							669.5825,505.3096 669.5825,690.791 						"/>
					</g>
					<g>
						<path fill="none" d="M656.0371,493.5107"/>
					</g>
					<g>
						<path fill="none" d="M656.0371,414.8301"/>
					</g>
					<g>
						<polygon fill="#FFFFFF" points="651.3965,421.0879 326.0596,421.0879 326.0596,402.2676 651.3965,402.2676 651.3965,421.0879 
													"/>
					</g>
				</g>
				<g>
					<polygon fill="#FFFFFF" points="367.9961,386.5166 349.1758,386.5166 349.1758,367.918 367.9961,367.918 367.9961,386.5166 
											"/>
				</g>
				<g>
					<polygon fill="#FFFFFF" points="400.541,386.5166 381.7212,386.5166 381.7212,367.918 400.541,367.918 400.541,386.5166 					
						"/>
				</g>
				<g>
					<polygon fill="#FFFFFF" points="433.0625,386.5166 414.2427,386.5166 414.2427,367.918 433.0625,367.918 433.0625,386.5166 
											"/>
				</g>
			</g>
			<g>
				<polygon fill="#FFFFFF" points="618.8613,386.6182 470.1328,386.6182 470.1328,367.7988 618.8613,367.7988 618.8613,386.6182 
									"/>
			</g>
		</g>
		<g>
			<g>
				<path fill="#FFFFFF" d="M596.1675,587.8682l-52.6836-52.6924l105.1235-105.1279c6.7588-6.7549,16.3623-10.6231,26.3511-10.6231
					s19.5918,3.8682,26.3457,10.6231c14.2622,14.289,14.2583,38.4121,0.0054,52.6923L596.1675,587.8682L596.1675,587.8682z
					 M570.0967,535.1758l26.0708,26.0801l91.831-91.8213c6.8091-6.8184,6.8091-19.253-0.0097-26.0899
					c-6.4878-6.4873-19.5688-6.4961-26.0752,0.0098L570.0967,535.1758L570.0967,535.1758z"/>
			</g>
			<g>
				<path fill="#FFFFFF" d="M514.6934,646.9209c-0.0044,0,0,0-0.0044,0c-19.1607,0-37.8291-7.6836-51.2085-21.0635l-16.0635-16.0615
					h22.7158c8.5606,0,12.9028-2.584,12.9028-7.665c0-10.3741,1.5074-23.7823,13.2696-35.5459
					c9.0468-8.2334,20.3271-12.5977,32.0942-12.5977c11.9282,0,22.978,4.4746,31.1113,12.5889
					c8.4722,8.4912,13.1729,20.1718,12.9068,32.0714c-0.2622,11.9101-5.4268,23.0664-14.5288,31.4101
					C547.146,640.8281,531.6982,646.9209,514.6934,646.9209L514.6934,646.9209z M491.3931,622.8262
					c7.1997,3.4179,15.1855,5.2744,23.2959,5.2744c11.978,0,22.6934-4.1358,30.1826-11.6338
					c7.0762-6.498,8.6245-13.4805,8.73-18.2422c0.1513-6.79-2.5454-13.4717-7.3975-18.3408
					c-9.2583-9.2266-26.5488-9.1074-36.9189,0.3213c-6.4878,6.5058-7.4292,14.4092-7.4292,21.9258
					C501.856,609.4639,498.8594,617.542,491.3931,622.8262L491.3931,622.8262z"/>
			</g>
		</g>
	</g>
</g>
</svg>
